<?xml version="1.0" standalone="no"?>
<!DOCTYPE svg PUBLIC "-//W3C//DTD SVG 20010904//EN"
 "http://www.w3.org/TR/2001/REC-SVG-20010904/DTD/svg10.dtd">
<svg version="1.0" xmlns="http://www.w3.org/2000/svg"
 width="1577.000000pt" height="1601.000000pt" viewBox="0 0 1577.000000 1601.000000"
 preserveAspectRatio="xMidYMid meet">

<g transform="translate(0.000000,1601.000000) scale(0.100000,-0.100000)"
fill="#000000" stroke="none">
<path d="M7449 14996 c-2 -2 -67 -10 -144 -17 -178 -15 -336 -34 -445 -54 -19
-3 -64 -10 -100 -15 -36 -5 -85 -14 -110 -19 -25 -6 -95 -20 -156 -31 -62 -11
-127 -26 -145 -34 -19 -8 -56 -17 -84 -21 -50 -7 -94 -18 -150 -39 -16 -6 -33
-10 -37 -9 -3 1 -39 -9 -80 -23 -40 -14 -98 -30 -128 -35 -30 -6 -76 -22 -102
-35 -26 -13 -57 -24 -68 -24 -11 0 -37 -9 -57 -20 -21 -11 -53 -23 -73 -26
-19 -4 -42 -12 -50 -19 -8 -7 -33 -16 -55 -20 -21 -3 -57 -16 -79 -27 -22 -11
-62 -28 -90 -38 -82 -28 -233 -93 -276 -119 -8 -5 -43 -21 -78 -37 -34 -15
-70 -36 -79 -46 -9 -10 -24 -18 -35 -18 -20 0 -293 -134 -302 -148 -3 -5 -47
-30 -98 -57 -51 -26 -106 -59 -121 -71 -16 -13 -35 -24 -43 -24 -8 0 -17 -7
-20 -15 -4 -8 -13 -15 -21 -15 -8 0 -29 -10 -46 -23 -18 -12 -39 -27 -48 -32
-24 -16 -170 -112 -208 -137 -18 -13 -42 -31 -52 -40 -10 -10 -21 -18 -24 -18
-3 0 -25 -16 -51 -35 -25 -19 -52 -35 -60 -35 -8 0 -20 -11 -26 -25 -6 -13
-19 -27 -28 -30 -9 -3 -32 -19 -51 -36 -19 -17 -51 -42 -72 -55 -21 -14 -70
-54 -110 -91 -40 -36 -90 -79 -112 -95 -84 -61 -314 -284 -541 -523 -237 -251
-254 -269 -254 -279 0 -4 -25 -35 -54 -67 -30 -32 -71 -84 -91 -114 -21 -30
-40 -55 -44 -55 -4 0 -13 -10 -18 -23 -6 -13 -36 -52 -66 -88 -30 -35 -63 -82
-75 -104 -11 -22 -32 -51 -47 -65 -15 -14 -33 -38 -41 -55 -13 -27 -27 -49
-81 -125 -10 -14 -16 -29 -15 -35 2 -5 -3 -14 -10 -20 -8 -5 -24 -27 -36 -48
-12 -20 -26 -43 -32 -50 -10 -11 -28 -37 -59 -87 -5 -8 -12 -22 -15 -30 -4 -8
-15 -30 -26 -47 -10 -18 -33 -60 -51 -93 -17 -33 -34 -62 -38 -64 -7 -5 -185
-360 -201 -401 -5 -11 -30 -68 -58 -126 -27 -58 -52 -116 -56 -130 -4 -13 -17
-49 -30 -79 -13 -30 -34 -82 -46 -115 -12 -33 -32 -85 -44 -115 -13 -30 -44
-122 -70 -205 -26 -82 -52 -163 -58 -180 -6 -16 -13 -46 -15 -65 -3 -19 -13
-54 -24 -77 -10 -24 -19 -50 -19 -58 0 -21 -20 -105 -33 -135 -6 -14 -18 -65
-28 -115 -10 -49 -25 -126 -34 -170 -27 -132 -46 -243 -74 -430 -38 -253 -45
-344 -64 -845 -9 -262 -8 -328 17 -610 3 -30 8 -95 11 -145 5 -84 15 -169 49
-405 21 -139 62 -361 74 -391 6 -14 13 -52 16 -85 4 -32 15 -88 26 -124 10
-36 26 -94 35 -130 9 -36 23 -80 31 -98 8 -18 14 -41 14 -51 0 -22 27 -118 41
-143 5 -10 11 -34 14 -53 2 -19 13 -56 25 -81 11 -26 20 -53 20 -60 0 -8 9
-33 19 -57 10 -23 21 -51 24 -62 11 -38 33 -93 43 -106 6 -8 14 -30 17 -49 3
-19 23 -73 46 -120 22 -47 41 -92 41 -100 0 -8 18 -50 40 -93 22 -42 40 -82
40 -89 0 -6 6 -19 14 -27 8 -9 21 -38 30 -64 9 -27 27 -65 41 -85 14 -20 25
-44 25 -53 0 -9 7 -19 15 -23 8 -3 15 -14 15 -24 0 -11 7 -25 15 -32 9 -7 14
-19 11 -26 -3 -7 1 -17 8 -24 8 -6 29 -40 47 -76 19 -36 40 -70 46 -76 7 -6
13 -19 13 -29 0 -11 4 -19 10 -19 5 0 12 -11 16 -25 3 -14 10 -25 15 -25 5 0
9 -5 9 -11 0 -6 15 -34 33 -62 54 -86 57 -91 69 -117 7 -14 19 -33 27 -43 8
-10 24 -33 36 -52 11 -18 47 -72 80 -120 33 -47 69 -101 80 -119 11 -18 37
-52 57 -76 21 -24 38 -47 38 -51 0 -4 14 -23 31 -41 17 -18 39 -49 49 -68 10
-19 30 -46 45 -60 15 -14 44 -48 65 -75 21 -28 58 -73 82 -100 25 -28 86 -95
135 -150 208 -232 724 -725 758 -725 4 0 43 -34 87 -75 44 -41 85 -75 91 -75
7 0 34 -21 60 -45 26 -25 51 -45 55 -45 4 0 27 -16 52 -36 47 -37 187 -134
245 -169 18 -11 73 -47 122 -80 48 -33 100 -67 115 -75 15 -8 63 -35 105 -60
43 -25 87 -49 98 -53 11 -4 22 -12 25 -16 3 -5 46 -29 95 -55 50 -25 97 -50
105 -55 48 -28 120 -61 134 -61 9 0 24 -9 33 -20 10 -11 22 -20 27 -20 5 0 61
-24 125 -54 219 -101 306 -139 334 -143 15 -3 30 -9 33 -14 3 -5 14 -9 26 -9
11 0 32 -7 46 -15 34 -19 146 -60 232 -85 36 -10 112 -35 170 -54 58 -20 112
-36 120 -36 8 -1 33 -8 55 -16 53 -20 130 -40 185 -49 25 -4 50 -11 56 -16 12
-10 93 -28 169 -38 28 -4 56 -10 63 -15 8 -5 39 -12 70 -17 32 -4 93 -15 137
-24 44 -9 128 -22 188 -30 59 -8 145 -21 190 -29 121 -21 160 -24 660 -47 184
-9 326 -5 717 17 69 4 134 7 145 7 11 0 79 8 150 19 72 10 177 25 235 33 58 7
125 18 150 23 25 6 65 13 90 16 75 10 129 23 142 33 7 6 63 16 123 23 61 8
114 19 120 26 6 7 37 17 70 23 94 16 119 23 137 38 9 8 40 18 70 22 69 11 141
29 203 51 28 10 68 24 90 31 22 6 65 22 95 34 30 12 75 28 100 35 25 8 51 18
59 24 16 12 81 36 99 36 8 0 54 20 104 45 50 25 97 45 104 45 16 0 263 117
284 134 8 7 35 19 60 26 25 8 47 17 50 21 6 8 33 22 150 81 51 27 101 55 110
63 9 8 24 15 33 15 9 0 17 4 17 10 0 5 11 12 25 16 14 3 25 10 25 15 0 5 6 9
14 9 7 0 24 8 37 19 13 10 42 29 64 41 44 26 93 55 144 85 18 11 49 32 68 47
20 16 39 28 44 28 4 0 14 6 21 13 7 8 31 25 53 39 22 14 49 35 61 46 11 11 34
27 50 36 34 20 93 60 114 79 52 45 119 97 127 97 5 0 31 23 58 50 27 28 53 50
57 50 9 0 23 11 104 85 33 30 65 55 70 55 18 0 638 619 692 692 22 29 50 62
62 73 12 11 33 36 45 55 13 19 48 64 79 99 31 36 56 69 56 73 0 5 25 39 55 74
30 36 55 68 55 72 0 4 14 21 30 39 17 18 30 39 30 47 0 9 4 16 9 16 10 0 99
126 159 224 9 16 27 40 38 55 12 14 36 53 53 86 18 32 38 66 45 75 8 8 26 39
41 68 15 29 31 54 35 57 5 3 22 31 38 63 63 125 96 188 106 201 5 7 11 20 13
29 1 9 7 18 12 20 6 2 11 10 11 17 0 8 14 36 30 62 17 26 30 53 30 60 0 7 4
21 9 31 38 71 111 226 121 258 7 21 24 62 38 89 25 50 66 154 82 210 14 49 32
97 56 150 13 28 26 68 30 89 4 22 13 51 20 65 8 14 14 34 14 44 0 10 7 32 16
48 8 17 13 33 10 36 -3 3 1 18 9 34 8 15 15 40 15 54 0 15 5 35 11 47 15 28
76 264 99 380 10 53 21 106 25 118 4 12 9 32 11 43 58 324 92 576 104 767 5
85 14 214 20 285 13 155 8 541 -8 750 -7 83 -17 211 -23 285 -6 74 -19 178
-29 230 -10 52 -21 120 -24 150 -3 30 -13 91 -21 135 -9 44 -18 96 -21 115 -2
19 -11 58 -19 85 -8 28 -19 84 -25 125 -7 41 -18 89 -25 105 -7 17 -19 55 -25
85 -7 30 -21 83 -31 117 -11 34 -19 69 -19 78 0 9 -7 27 -16 41 -9 13 -14 27
-11 30 3 3 -9 44 -25 92 -17 48 -34 101 -39 117 -15 54 -77 232 -88 251 -15
28 -61 144 -71 179 -4 17 -31 78 -59 137 -28 59 -51 114 -51 121 0 8 -9 22
-20 32 -11 10 -20 26 -20 36 0 33 -251 511 -293 557 -9 9 -26 40 -39 67 -13
28 -34 66 -48 85 -31 43 -48 70 -57 90 -4 8 -22 36 -40 62 -18 26 -33 52 -33
58 0 5 -11 17 -25 26 -14 9 -25 23 -25 31 0 15 -23 51 -87 131 -24 30 -43 59
-43 64 0 6 -17 30 -37 54 -21 23 -51 59 -68 80 -16 21 -40 48 -52 60 -13 12
-23 27 -23 33 0 7 -23 37 -51 67 -29 29 -60 66 -69 81 -14 23 -119 139 -242
266 -16 16 -28 32 -28 35 0 14 -82 92 -96 92 -8 0 -18 9 -22 19 -9 24 -139
161 -152 161 -5 0 -17 11 -26 24 -8 14 -22 26 -29 28 -8 2 -58 46 -112 99 -55
53 -112 103 -128 112 -17 8 -55 40 -85 70 -30 30 -66 60 -80 67 -14 7 -34 21
-45 31 -37 33 -111 94 -136 111 -78 56 -97 68 -124 81 -16 8 -41 27 -55 42
-14 15 -41 36 -60 46 -19 11 -51 31 -70 44 -136 94 -169 115 -186 115 -8 0
-17 7 -20 15 -4 8 -11 15 -18 15 -6 0 -24 11 -41 25 -16 14 -57 38 -90 55 -33
17 -78 41 -100 55 -71 42 -554 285 -569 285 -7 0 -19 7 -26 15 -7 8 -19 15
-26 15 -7 0 -47 16 -88 35 -41 19 -80 35 -86 35 -6 0 -30 9 -52 20 -23 11 -47
20 -53 20 -7 0 -25 6 -41 14 -60 29 -100 44 -147 56 -27 7 -65 21 -85 32 -20
10 -43 18 -52 18 -8 0 -40 9 -70 21 -30 11 -71 25 -90 29 -19 4 -70 19 -114
34 -43 14 -81 24 -85 23 -3 -1 -19 3 -36 9 -68 25 -103 34 -134 34 -17 0 -48
7 -69 16 -20 9 -57 20 -82 25 -25 4 -82 14 -127 23 -45 8 -87 17 -93 21 -6 4
-57 13 -113 21 -112 16 -140 21 -177 29 -14 3 -65 9 -115 14 -49 5 -108 12
-130 15 -167 24 -293 30 -766 33 -289 2 -527 2 -530 -1z m4481 -2751 c14 -8
37 -14 51 -15 15 0 40 -7 55 -15 16 -8 39 -15 50 -15 12 0 24 -7 28 -15 3 -8
12 -15 21 -15 8 0 15 -4 15 -10 0 -5 6 -10 13 -10 15 0 164 -150 216 -218 37
-47 131 -228 131 -252 0 -8 9 -32 20 -52 11 -20 21 -48 24 -62 3 -14 7 -30 11
-36 25 -41 84 -314 110 -510 9 -63 19 -137 23 -165 9 -63 8 -1282 -1 -1350 -9
-62 -33 -344 -41 -485 -4 -58 -11 -134 -17 -170 -20 -126 -30 -316 -24 -445 8
-184 38 -278 115 -357 60 -61 99 -76 166 -63 79 14 179 157 220 312 26 98 34
311 21 528 -4 61 -9 166 -11 235 -6 147 -23 402 -37 550 -28 292 -34 1692 -8
1810 5 25 13 71 17 103 5 31 14 63 20 69 7 7 12 22 12 35 0 31 66 161 93 185
49 41 81 51 183 56 l100 4 27 -32 c15 -17 27 -36 27 -42 0 -6 14 -26 30 -45
17 -18 30 -40 30 -48 0 -8 4 -15 10 -15 5 0 21 -21 35 -47 14 -27 44 -73 66
-103 22 -30 53 -81 69 -112 16 -31 34 -59 40 -63 5 -3 10 -14 10 -24 0 -10 8
-26 19 -35 10 -9 31 -43 45 -75 14 -32 33 -64 40 -71 8 -6 12 -18 9 -26 -3 -7
2 -17 11 -20 9 -3 16 -14 16 -24 0 -10 7 -23 15 -30 8 -7 15 -20 15 -30 0 -10
7 -23 15 -30 8 -7 15 -20 15 -30 0 -10 7 -23 15 -30 8 -7 15 -18 15 -26 0 -7
32 -78 70 -158 39 -80 70 -150 70 -155 0 -4 12 -35 27 -67 15 -33 28 -66 29
-74 0 -9 6 -25 12 -35 20 -38 102 -260 102 -277 0 -9 6 -29 14 -45 18 -36 36
-92 40 -119 2 -11 6 -26 11 -33 4 -7 14 -38 22 -69 7 -31 18 -70 23 -87 5 -16
16 -61 25 -100 10 -38 21 -74 26 -79 5 -6 9 -24 9 -41 0 -16 5 -46 10 -65 14
-47 26 -102 54 -250 93 -491 114 -735 114 -1295 0 -410 -9 -597 -38 -830 -7
-49 -15 -121 -20 -160 -4 -38 -20 -133 -35 -210 -15 -77 -29 -159 -31 -183 -1
-24 -8 -50 -15 -58 -7 -9 -14 -32 -15 -52 -3 -39 -14 -89 -62 -267 -48 -177
-60 -218 -71 -246 -5 -15 -7 -30 -4 -33 3 -3 -1 -16 -9 -28 -21 -33 -68 -172
-68 -201 0 -13 -9 -36 -20 -50 -11 -14 -20 -31 -20 -39 0 -16 -29 -99 -39
-113 -4 -5 -15 -32 -25 -60 -19 -56 -22 -62 -65 -157 -17 -37 -31 -72 -31 -77
0 -15 -260 -532 -284 -566 -12 -16 -32 -49 -44 -72 -31 -61 -45 -86 -60 -105
-15 -18 -41 -64 -65 -113 -8 -16 -24 -39 -36 -49 -11 -11 -21 -24 -21 -30 0
-12 -41 -74 -87 -132 -18 -23 -33 -45 -33 -50 0 -5 -12 -23 -27 -40 -30 -33
-48 -61 -71 -109 -8 -16 -38 -55 -67 -85 -28 -30 -60 -68 -71 -85 -10 -16 -26
-37 -34 -46 -15 -16 -71 -82 -131 -154 -19 -23 -47 -54 -62 -69 -15 -15 -39
-44 -52 -64 -32 -48 -495 -507 -560 -555 -27 -20 -72 -59 -100 -87 -27 -27
-54 -50 -58 -50 -4 0 -22 -14 -40 -30 -18 -17 -52 -45 -76 -63 -23 -18 -70
-56 -102 -84 -32 -29 -65 -53 -72 -53 -8 0 -22 -9 -33 -21 -10 -12 -32 -28
-49 -37 -16 -8 -53 -33 -82 -56 -92 -72 -126 -96 -138 -96 -7 0 -20 -9 -29
-19 -10 -11 -33 -27 -52 -36 -19 -9 -34 -20 -34 -25 0 -6 -7 -10 -15 -10 -14
0 -63 -29 -115 -67 -14 -11 -58 -36 -99 -57 -41 -21 -90 -50 -110 -63 -46 -32
-531 -273 -547 -273 -7 0 -50 -18 -96 -40 -46 -22 -90 -40 -98 -40 -8 0 -35
-11 -59 -25 -23 -14 -53 -25 -65 -25 -12 0 -30 -6 -41 -14 -11 -7 -31 -16 -45
-19 -40 -9 -187 -62 -202 -73 -7 -6 -22 -11 -33 -12 -11 0 -69 -17 -129 -36
-60 -20 -116 -36 -125 -36 -9 0 -36 -7 -61 -16 -52 -19 -129 -37 -255 -62 -49
-10 -101 -24 -115 -32 -14 -8 -56 -18 -95 -22 -110 -11 -203 -26 -222 -37 -10
-5 -58 -12 -108 -17 -49 -4 -92 -8 -95 -9 -33 -9 -94 -17 -185 -26 -60 -5
-123 -11 -140 -13 -16 -2 -171 -9 -343 -16 -291 -11 -571 -6 -827 16 -193 16
-283 25 -305 31 -30 8 -22 7 -135 17 -49 5 -98 12 -107 17 -9 5 -81 19 -161
32 -79 13 -150 28 -158 32 -7 5 -56 17 -109 26 -52 10 -122 25 -155 33 -33 8
-80 20 -105 26 -25 7 -54 16 -65 21 -19 9 -107 34 -205 60 -25 6 -58 17 -75
25 -31 14 -166 62 -200 71 -11 2 -33 11 -50 18 -63 28 -160 65 -170 65 -5 0
-52 20 -103 45 -51 25 -99 45 -106 45 -8 0 -19 7 -26 15 -7 8 -20 15 -30 15
-24 0 -420 199 -420 211 0 5 -9 9 -19 9 -11 0 -26 6 -34 14 -7 8 -41 28 -75
45 -33 17 -63 35 -67 40 -3 6 -31 23 -63 39 -31 16 -71 38 -87 48 -17 11 -46
28 -64 39 -18 11 -46 30 -61 43 -15 12 -31 22 -36 22 -4 0 -32 19 -63 42 -31
24 -87 64 -126 89 -38 26 -79 56 -89 68 -11 11 -25 21 -32 21 -7 0 -30 16 -51
36 -21 19 -55 46 -75 60 -20 13 -52 38 -72 56 -19 18 -54 49 -78 70 -23 20
-77 65 -118 100 -41 36 -83 68 -92 71 -10 4 -18 13 -18 20 0 8 -9 18 -20 23
-26 12 -387 370 -410 407 -9 15 -62 76 -117 135 -55 59 -106 118 -113 132 -7
14 -21 32 -31 41 -10 8 -35 38 -56 66 -21 28 -57 72 -81 99 -48 56 -83 104
-111 154 -10 19 -31 46 -45 59 -14 14 -26 29 -26 35 0 6 -16 31 -36 56 -20 25
-40 55 -45 68 -5 12 -13 22 -19 22 -5 0 -10 8 -10 19 0 10 -20 40 -44 66 -24
26 -47 58 -50 71 -6 22 -76 147 -146 259 -48 78 -240 462 -240 481 0 10 -6 25
-14 33 -28 34 -88 165 -105 236 -5 17 -18 50 -29 74 -12 25 -22 52 -22 60 0 9
-7 25 -15 35 -8 11 -15 30 -15 42 0 12 -6 27 -14 33 -7 6 -17 30 -20 53 -4 23
-16 63 -28 88 -12 25 -22 53 -23 62 -1 9 -7 30 -13 45 -6 15 -22 71 -37 123
-15 52 -33 118 -42 145 -13 44 -38 142 -47 185 -1 8 -9 35 -16 60 -7 25 -12
55 -12 68 1 13 -4 35 -12 50 -8 15 -19 70 -26 122 -7 52 -20 127 -30 165 -10
39 -21 106 -25 150 -4 44 -9 85 -10 90 -13 63 -17 97 -26 200 -28 338 -37 917
-18 1170 4 66 13 181 19 255 5 74 14 144 18 155 5 11 10 47 11 80 1 32 9 93
16 135 8 41 25 136 39 210 13 74 29 147 34 161 6 14 15 61 22 105 7 43 17 88
22 98 11 20 49 161 73 270 8 32 18 63 24 69 6 6 11 21 11 33 0 13 4 26 10 29
5 3 10 18 10 32 0 14 6 39 14 56 7 18 23 61 34 97 24 75 65 182 87 223 8 16
15 35 15 43 0 8 4 22 10 32 16 31 39 87 42 107 5 30 93 33 146 6 95 -48 128
-151 137 -426 3 -60 11 -234 20 -385 17 -300 27 -1386 14 -1430 -7 -22 -14
-137 -34 -585 -3 -55 -10 -149 -16 -210 -24 -236 -29 -281 -34 -315 -3 -19
-17 -105 -31 -190 -14 -85 -30 -168 -37 -185 -6 -16 -10 -36 -9 -42 2 -7 -4
-33 -13 -58 -8 -25 -15 -60 -15 -78 0 -17 -7 -49 -15 -72 -8 -22 -24 -98 -34
-170 -11 -71 -25 -152 -30 -180 -18 -88 -25 -420 -12 -533 12 -104 47 -220 76
-252 8 -9 15 -23 15 -31 0 -16 71 -86 107 -107 13 -6 31 -12 41 -12 10 0 23
-5 29 -11 8 -8 21 -8 45 -1 18 6 53 16 78 22 25 7 58 23 73 36 16 13 32 24 37
24 14 0 80 71 80 86 0 7 6 17 14 21 27 15 103 186 115 258 7 39 17 86 23 105
15 53 22 413 8 500 -6 41 -13 102 -15 135 -3 33 -17 128 -31 210 -14 83 -29
184 -34 225 -18 163 -41 359 -50 430 -6 41 -10 96 -10 121 0 25 -4 59 -10 75
-5 16 -14 115 -19 219 -13 240 -15 273 -34 540 -21 282 -32 1299 -19 1785 8
321 11 360 30 410 11 30 23 71 27 90 4 19 21 67 39 105 18 39 39 87 45 108 18
54 117 243 152 289 16 21 42 55 57 76 16 20 36 51 45 68 9 17 32 44 51 60 85
72 110 90 149 112 22 12 48 29 56 36 14 12 39 20 146 44 32 7 242 7 310 0 75
-8 234 -76 265 -114 8 -9 32 -27 52 -40 21 -14 38 -31 38 -38 0 -8 4 -16 9
-18 14 -5 101 -136 101 -152 0 -7 7 -19 15 -26 8 -7 15 -21 15 -32 0 -21 56
-192 73 -223 11 -19 28 -62 67 -170 10 -27 34 -84 55 -125 20 -41 48 -97 61
-123 13 -27 24 -55 24 -62 0 -7 7 -18 15 -25 8 -7 15 -19 15 -27 0 -8 11 -29
25 -47 14 -18 25 -38 25 -43 0 -6 6 -16 14 -22 7 -6 29 -41 47 -77 19 -37 40
-69 47 -71 6 -3 12 -12 12 -19 0 -15 13 -34 43 -62 9 -9 17 -21 17 -27 0 -5
16 -30 35 -54 19 -24 35 -48 35 -52 0 -14 262 -279 275 -279 7 0 35 -18 61
-41 53 -44 192 -119 221 -119 10 0 32 -9 50 -19 35 -22 251 -48 306 -37 84 17
184 89 202 145 3 12 11 21 16 21 9 0 96 173 122 245 8 22 20 63 27 90 13 55
14 58 34 165 8 41 18 89 24 105 19 61 61 552 67 785 3 102 9 202 15 223 5 20
14 52 18 70 16 59 80 172 119 208 40 38 105 74 150 85 16 3 79 9 140 11 112 5
173 -5 238 -40 11 -6 46 -23 77 -39 41 -20 59 -35 64 -52 3 -14 14 -28 24 -31
10 -3 29 -22 42 -42 13 -20 32 -50 43 -67 10 -17 25 -37 32 -44 7 -7 13 -22
13 -33 0 -10 4 -19 9 -19 5 0 15 -17 22 -37 6 -21 16 -44 22 -52 17 -20 70
-175 84 -241 2 -14 11 -38 18 -55 13 -26 32 -135 39 -216 2 -15 8 -40 14 -55
6 -16 28 -146 48 -289 l36 -260 -5 -290 c-3 -185 -11 -326 -20 -390 -32 -205
-49 -337 -44 -342 3 -3 -1 -24 -10 -46 -20 -56 -24 -100 -29 -311 -4 -157 -3
-186 15 -240 10 -33 22 -76 26 -94 4 -17 22 -50 41 -73 19 -22 34 -45 34 -50
0 -5 6 -9 13 -9 8 0 22 -9 32 -20 10 -11 21 -17 26 -14 5 3 18 0 30 -6 11 -7
32 -9 45 -6 35 9 96 67 118 113 10 21 25 50 32 65 8 14 14 36 14 48 0 12 4 30
10 40 5 10 13 35 17 56 9 48 10 558 1 599 -4 17 -11 50 -17 75 -5 25 -17 141
-27 259 -25 320 -9 981 30 1221 7 47 14 94 14 105 3 65 25 233 33 250 5 11 14
49 19 85 5 36 15 97 23 135 8 39 22 106 30 150 9 44 20 94 25 110 13 39 32
132 36 171 2 17 7 37 11 44 9 14 23 70 30 115 2 17 7 48 10 70 3 22 12 56 20
75 7 19 21 61 30 93 36 122 113 241 177 273 60 31 104 30 166 -1 28 -14 55
-25 61 -25 27 0 161 -163 161 -196 0 -8 9 -33 21 -56 28 -54 46 -126 59 -234
6 -49 18 -114 26 -144 31 -112 48 -165 55 -175 4 -5 10 -26 14 -45 4 -19 16
-53 26 -74 11 -22 19 -47 19 -55 0 -9 7 -29 15 -45 8 -15 15 -33 15 -39 0 -18
161 -339 181 -362 16 -19 27 -35 74 -114 11 -18 31 -45 44 -58 13 -14 40 -47
60 -73 20 -26 59 -66 86 -89 28 -22 64 -55 81 -71 17 -17 38 -30 46 -30 9 0
20 -6 26 -13 18 -21 154 -86 208 -99 61 -14 247 -15 295 -1 20 6 52 18 70 28
19 10 51 26 71 36 20 10 51 32 69 49 19 16 39 30 45 30 29 0 346 317 398 398
13 21 33 47 45 59 12 12 21 29 21 38 0 8 4 15 8 15 4 0 28 28 53 61 42 60 61
88 104 159 11 18 30 45 43 60 12 15 22 35 22 43 0 8 6 20 13 26 8 6 22 29 32
51 10 22 22 40 27 40 4 0 8 6 8 13 0 18 28 75 41 83 5 3 59 104 119 225 61
120 114 219 118 219 4 0 21 20 37 45 28 45 97 115 113 115 5 0 24 14 43 31 67
61 216 149 253 149 12 0 27 5 33 11 40 40 435 67 493 34z"/>
<path d="M13660 9364 c-57 -25 -97 -61 -130 -118 -61 -108 -75 -198 -95 -631
-7 -141 -33 -393 -45 -435 -5 -19 -10 -46 -10 -61 0 -14 -19 -81 -42 -150
l-43 -124 0 -530 0 -530 -34 -65 c-60 -114 -172 -310 -182 -316 -5 -3 -9 -13
-9 -23 0 -10 -10 -29 -23 -42 -12 -13 -31 -37 -42 -54 -65 -105 -231 -307
-323 -397 -133 -128 -192 -162 -282 -162 -57 -1 -70 3 -103 28 -41 32 -87 101
-87 132 0 13 25 34 76 67 41 26 79 47 83 47 13 0 182 179 232 245 122 162 197
444 169 635 -13 91 -35 153 -103 285 -54 105 -110 176 -161 202 -53 28 -241
11 -352 -31 -22 -8 -82 -27 -134 -42 -114 -32 -159 -53 -226 -108 -65 -53
-108 -107 -153 -193 -51 -98 -67 -148 -113 -368 -14 -68 -18 -498 -5 -632 8
-92 6 -96 -52 -67 -49 24 -79 6 -218 -128 -199 -192 -286 -238 -456 -238 -110
0 -168 13 -255 57 -159 80 -173 230 -40 415 90 125 337 344 522 462 43 28 114
103 130 139 22 50 25 75 14 115 -35 130 -246 197 -454 143 -80 -21 -182 -67
-233 -105 -64 -48 -78 -29 -36 46 37 67 43 129 15 167 -33 47 -69 61 -153 61
-125 0 -285 -61 -373 -142 -24 -22 -59 -68 -79 -101 -19 -34 -70 -116 -113
-183 -43 -66 -110 -171 -148 -232 -38 -62 -80 -130 -94 -152 -14 -22 -49 -78
-79 -125 -29 -48 -60 -89 -68 -92 -27 -10 -31 18 -12 81 41 138 42 274 1 320
-54 61 -206 76 -309 30 -99 -43 -186 -150 -196 -241 -3 -23 1 -236 8 -475 19
-613 23 -835 14 -849 -14 -24 -36 1 -59 68 -12 37 -32 86 -44 108 -26 49 -29
113 -45 910 -6 316 -16 590 -22 615 -14 61 -52 100 -98 100 -77 0 -290 -153
-709 -510 -374 -319 -473 -411 -571 -534 -211 -267 -398 -718 -415 -1004 -6
-104 -4 -118 19 -190 64 -189 168 -264 328 -234 126 24 263 108 415 256 198
193 352 438 458 730 32 85 64 129 88 120 24 -9 32 -53 76 -379 40 -299 88
-444 174 -523 62 -57 105 -67 190 -42 37 10 75 25 84 32 50 37 86 78 103 116
22 50 40 53 69 12 29 -40 69 -60 123 -60 61 0 105 21 171 80 72 66 126 173
156 307 46 205 73 311 102 408 109 356 302 697 590 1043 100 119 115 109 49
-30 -53 -111 -85 -204 -120 -351 -32 -134 -37 -169 -50 -333 -16 -206 36 -438
125 -559 44 -60 113 -115 172 -138 88 -35 278 -20 452 36 107 35 349 148 460
215 187 113 357 234 453 322 30 27 60 50 67 50 7 0 40 -26 74 -57 66 -61 207
-158 296 -203 30 -15 98 -42 150 -59 89 -30 101 -32 215 -28 131 4 172 12 255
53 109 53 204 140 319 294 162 218 268 340 295 340 31 0 38 -26 27 -105 -15
-106 -14 -178 5 -233 32 -98 81 -127 199 -119 89 6 167 35 222 80 94 81 109
244 58 637 -32 250 -37 326 -42 620 -4 267 -2 329 17 499 11 107 23 198 25
202 3 4 9 47 15 96 12 107 23 191 50 388 24 178 47 376 60 535 6 63 14 153 20
200 16 134 24 640 11 673 l-11 27 -107 0 c-73 -1 -119 -6 -143 -16z m-1510
-2505 c19 -12 40 -29 48 -38 150 -188 171 -353 63 -488 -40 -50 -125 -101
-181 -109 -53 -7 -66 4 -96 81 -27 72 -27 344 0 425 25 73 52 117 84 135 36
19 41 19 82 -6z m-4034 -973 c16 -42 -214 -496 -380 -750 -140 -216 -201 -259
-227 -163 -16 60 4 177 43 246 16 30 43 78 58 106 60 112 256 368 382 500 70
75 111 95 124 61z"/>
<path d="M7405 7144 c-63 -22 -249 -167 -371 -288 -164 -165 -299 -337 -494
-631 -153 -230 -168 -232 -143 -20 34 297 -29 423 -209 425 -100 0 -174 -34
-308 -142 -125 -100 -292 -274 -564 -588 -341 -394 -506 -556 -506 -496 0 11
55 114 100 186 34 54 114 203 144 266 36 74 36 76 36 208 0 161 -15 221 -68
268 -35 30 -36 31 -126 25 -104 -6 -155 -24 -322 -112 -209 -111 -382 -238
-701 -516 -270 -236 -371 -315 -568 -444 -186 -123 -253 -193 -289 -302 -17
-50 -17 -56 -1 -105 24 -73 69 -134 127 -172 24 -16 31 -16 76 -3 105 32 161
75 199 155 14 31 28 78 31 104 4 46 8 51 80 111 41 34 107 91 147 127 246 225
533 469 640 545 64 46 155 97 193 109 27 9 72 -25 72 -54 0 -45 -54 -161 -176
-376 -74 -131 -134 -239 -134 -241 0 -1 -17 -31 -39 -66 -21 -35 -56 -96 -77
-136 -22 -40 -44 -80 -49 -89 -6 -9 -46 -80 -89 -157 -120 -213 -205 -355
-241 -405 -48 -66 -215 -319 -215 -325 0 -4 -11 -21 -24 -38 -13 -18 -38 -59
-56 -92 -18 -33 -36 -64 -40 -70 -15 -19 -149 -291 -165 -335 -62 -170 -69
-291 -21 -354 64 -84 151 -112 247 -81 139 45 257 146 333 285 35 63 173 274
331 505 49 72 102 150 119 175 17 25 43 61 57 80 14 19 86 118 159 220 222
307 379 512 621 810 241 297 590 650 643 650 36 0 11 -57 -134 -300 -106 -178
-99 -166 -213 -367 -117 -206 -193 -372 -228 -498 -7 -28 -14 -98 -14 -160 0
-92 3 -115 20 -144 49 -83 128 -97 238 -43 115 57 361 331 638 710 57 78 115
159 129 180 13 20 48 70 77 109 29 40 53 76 53 81 0 4 13 23 28 42 16 19 91
127 167 240 76 113 154 228 174 255 158 226 228 315 248 315 8 0 16 -6 19 -14
8 -21 -149 -344 -191 -393 -50 -59 -88 -128 -256 -464 -171 -343 -179 -361
-190 -414 -4 -22 -22 -78 -39 -125 -16 -47 -34 -101 -39 -120 -5 -19 -16 -62
-25 -95 -61 -220 -77 -454 -37 -556 47 -124 140 -161 306 -123 139 32 208 68
240 127 18 34 18 37 2 55 -16 18 -16 20 -1 33 19 16 15 77 -12 179 -9 37 -19
118 -21 189 -5 141 -10 124 103 359 35 73 64 134 64 136 0 5 186 393 340 711
209 430 239 493 258 535 11 25 32 71 46 102 14 31 26 60 26 65 0 4 7 21 15 37
9 16 33 82 55 146 115 345 112 532 -10 595 -37 19 -141 18 -195 -1z"/>
</g>
</svg>
